<!-- icon666.com - MILLIONS vector ICONS FREE --><svg clip-rule="evenodd" fill-rule="evenodd" image-rendering="optimizeQuality" shape-rendering="geometricPrecision" text-rendering="geometricPrecision" viewBox="0 0 2833 2833" xmlns="http://www.w3.org/2000/svg" xmlns:xlink="http://www.w3.org/1999/xlink"><linearGradient id="id0" gradientUnits="userSpaceOnUse" x1="-.004" x2="2833.33" y1="1416.67" y2="1416.67"><stop offset="0" stop-color="#26a9e0"></stop><stop offset=".0901961" stop-color="#2297d3"></stop><stop offset=".231373" stop-color="#1e84c6"></stop><stop offset=".368627" stop-color="#1c79be"></stop><stop offset=".521569" stop-color="#1b75bb"></stop><stop offset=".960784" stop-color="#2b388f"></stop><stop offset="1" stop-color="#2b388f"></stop></linearGradient><g id="Layer_x0020_1"><circle cx="1417" cy="1417" fill="url(#id0)" r="1417"></circle><g fill="#fff"><path d="m1672 2079h-111v-249c0-11-9-20-20-20h-240c-11 0-20 9-20 20v249h-111c2-6 4-13 4-20v-532h494v532c0 7 1 14 4 20zm-57-318h-194-194c-12 0-20-9-20-20v-105c0-11 8-20 20-20h388c11 0 20 9 20 20v105c0 11-9 20-20 20zm-368-40h154v-65h-154zm194 0h154v-65h-154zm80 358h-200v-229h200z"></path><path d="m1183 1487v-245c0-11 9-20 20-20h436c11 0 20 9 20 20v245zm342-60h-209c-11 0-20-9-20-20v-105c0-11 9-20 20-20h209c11 0 20 9 20 20v105c0 11-9 20-20 20zm-189-40h169v-65h-169z"></path><path d="m1282 1182 35-211c1-9 10-17 19-17h169c10 0 19 8 20 17l35 211z"></path><path d="m1421 994c-11 0-20-8-20-20v-200c0-26 40-26 40 0v200c0 12-9 20-20 20z"></path><path d="m1114 2079h-443c-11 0-20-9-20-20v-1095c0-13 13-23 26-18l443 155c8 3 14 11 14 19v939c0 11-9 20-20 20zm-265-779c-136 0-115 21-115-114 0-11 9-20 20-20 136 0 115-21 115 114 0 11-9 20-20 20zm-75-40h55v-54h-55zm256 40c-135 0-114 21-114-114 0-11 9-20 20-20 135 0 114-21 114 114 0 11-9 20-20 20zm-74-40h54v-54h-54zm-107 207c-136 0-115 21-115-115 0-11 9-20 20-20 136 0 115-21 115 115 0 11-9 20-20 20zm-75-40h55v-55h-55zm256 40c-135 0-114 21-114-115 0-11 9-20 20-20 135 0 114-21 114 115 0 11-9 20-20 20zm-74-40h54v-55h-54zm-107 206c-136 0-115 21-115-114 0-11 9-20 20-20 136 0 115-21 115 114 0 11-9 20-20 20zm-75-40h55v-54h-55zm256 40c-135 0-114 21-114-114 0-11 9-20 20-20 135 0 114-21 114 114 0 11-9 20-20 20zm-74-40h54v-54h-54zm-107 207c-136 0-115 21-115-114 0-12 9-20 20-20 136 0 115-21 115 114 0 11-9 20-20 20zm-75-40h55v-54h-55zm256 40c-135 0-114 21-114-114 0-12 9-20 20-20 135 0 114-21 114 114 0 11-9 20-20 20zm-74-40h54v-54h-54zm-107 207c-136 0-115 20-115-115 0-11 9-20 20-20 136 0 115-21 115 115 0 11-9 20-20 20zm-75-40h55v-55h-55zm256 40c-135 0-114 20-114-115 0-11 9-20 20-20 135 0 114-21 114 115 0 11-9 20-20 20zm-74-40h54v-55h-54z"></path><path d="m2163 2079h-435c-11 0-20-9-20-20v-121h299c11 0 20-9 20-20v-128c0-11-9-20-20-20h-299v-405c0-11 9-20 20-20h435c11 0 20 9 20 20v121h-299c-11 0-20 9-20 20v129c0 11 9 20 20 20h299v404c0 11-9 20-20 20zm-455-181v-88h279v88zm475-372v89h-279v-89z"></path><path d="m2250 2079h-1667c-26 0-26-40 0-40h1667c26 0 26 40 0 40z"></path><path d="m1781 1305v-60c0-11 9-20 20-20h288c11 0 20 9 20 20v60z"></path></g></g></svg>